# xmcd
# 
# Track frame offsets:
#     150
#     17549
#     37354
#     51564
#     69442
#     86840
# 
# Disc length: 1380
# 
# Revision: 0
# Processed by: cddbd v1.5.2PL0 Copyright (c) Steve Scherf et al.
# Submitted via: fre:ac v1.0.17
# 
DISCID=52056206
DTITLE=Andre Thierry - Bouncin With The Blues
DYEAR=2015
DGENRE=Blues
TTITLE0=Killing Floor
TTITLE1=My Eyes Keep Me In Trouble
TTITLE2=Don't Burn Down The Bridge
TTITLE3=Be My Chauffeur
TTITLE4=Do The Do
TTITLE5=After Hours
EXTD=
EXTT0=
EXTT1=
EXTT2=
EXTT3=
EXTT4=
EXTT5=
PLAYORDER=
